<div class="layer2">
  <svg width="263" height="525" fill="none" xmlns="http://www.w3.org/2000/svg">
   <mask id="b" style="mask-type:alpha" maskUnits="userSpaceOnUse" x="0" y="0" width="263" height="525">
     <rect x="1.11384" y=".503279" width="261.446" height="523.847" rx="25.3166" fill="#1D1D1D" stroke="url(#a)" stroke-width=".318448"/>
   </mask>
   <g mask="url(#b)">
     <path d="M-27.6908-12.4546V524.308H274.285V-12.4546H-27.6908Z" fill="url(#c)"/>
     <path class="moon" d="M110.484 220.411c-3.788-1.769-6.96-4.631-9.109-8.217-2.1496-3.586-3.1772-7.733-2.9512-11.907.226-4.175 1.6952-8.186 4.2192-11.52 2.523-3.333 5.986-5.835 9.943-7.185-3.934-.418-7.91.172-11.553 1.714-3.6437 1.542-6.8348 3.986-9.2734 7.101-2.4387 3.116-4.0446 6.8-4.6667 10.707-.6221 3.907-.24 7.909 1.1105 11.627 1.3504 3.719 3.6247 7.033 6.609 9.63 2.9842 2.598 6.5806 4.393 10.4496 5.218 3.869.824 7.885.651 11.669-.504 3.784-1.155 7.212-3.254 9.961-6.099-2.632 1.018-5.442 1.493-8.262 1.396-2.82-.097-5.591-.764-8.146-1.961Z" fill="#FAF4D4"/>
     <path class="moon" d="M93.7781 210.494c1.6297 0 2.9508-1.321 2.9508-2.95 0-1.63-1.3211-2.951-2.9508-2.951-1.6297 0-2.9508 1.321-2.9508 2.951 0 1.629 1.3211 2.95 2.9508 2.95ZM107.726 227.769c1.629 0 2.95-1.321 2.95-2.95 0-1.63-1.321-2.951-2.95-2.951-1.63 0-2.951 1.321-2.951 2.951 0 1.629 1.321 2.95 2.951 2.95ZM98.3055 216.92c.935 0 1.6929-.758 1.6929-1.693s-.7579-1.693-1.6929-1.693c-.9349 0-1.6928.758-1.6928 1.693s.7579 1.693 1.6928 1.693ZM99.9984 224.225c.9346 0 1.6926-.758 1.6926-1.693s-.758-1.693-1.6926-1.693c-.9349 0-1.6928.758-1.6928 1.693s.7579 1.693 1.6928 1.693ZM95.9231 203.053c.4919 0 .8907-.399.8907-.891s-.3988-.891-.8907-.891c-.4919 0-.8907.399-.8907.891s.3988.891.8907.891ZM97.7045 189.078c.4919 0 .8907-.399.8907-.891s-.3988-.891-.8907-.891c-.4919 0-.8907.399-.8907.891s.3988.891.8907.891ZM92.0889 216.117c.4919 0 .8907-.398.8907-.89s-.3988-.891-.8907-.891c-.4919 0-.8907.399-.8907.891s.3988.89.8907.89ZM115.539 226.73c.492 0 .89-.398.89-.89s-.398-.891-.89-.891-.891.399-.891.891.399.89.891.89ZM96.358 196.13c.935 0 1.6929-.758 1.6929-1.693s-.7579-1.692-1.6929-1.692c-.9349 0-1.6928.757-1.6928 1.692 0 .935.7579 1.693 1.6928 1.693ZM90.9435 201.271c1.2039 0 2.1799-.976 2.1799-2.18 0-1.203-.976-2.179-2.1799-2.179s-2.1798.976-2.1798 2.179c0 1.204.9759 2.18 2.1798 2.18Z" fill="#F3EBC0"/>
     <path d="m-27.6908 354.192 2.9214-2.271 2.4839 1.707 9.2864-6.872 4.03628.141 7.40933-8.381h5.25003l3.03431-5.066 4.86895-2.54 7.3811-10.498 15.4114 25.639 5.0525.705 1.1855 5.87 11.3892 6.971.7198 6.49 4.2339 4.939 1.7782 6.999 10.5706.409 12.5324 7.761.5222 7.055 5.5323 3.782 4.2339 4.755 11.6572-2.921 13.041 10.033h4.939l3.288 5.813 5.801-1.411 12.081 11.528h10.994l4.29 4.939 10.825 4.262 4.657-1.2 19.307 13.631 27.308 23.282-250.2375 1.623 2.2157-117.174Z" fill="url(#d)"/>
     <g style="mix-blend-mode:screen" opacity=".5">
       <path d="m18.981 320.412-1.0585 12.107.5363 4.233-4.0646 3.88-.5786 5.179-4.00807 3.993 9.17347-.818 4.4738-2.23 10.9376-.705-15.4114-25.639ZM40.6303 352.626l-7.8892 5.418-2.4697 5.278-6.7037 2.949-1.9617 4.826 14.734-3.246 4.4032-5.997 7.6493 5.122 4.3468-.889-.7198-6.49-11.3892-6.971ZM58.7514 378.025l-4.9536 2.582h11.2904l3.7964 3.387 7.9315 2.469.6492 5.207 4.9113 1.58-.5222-7.055-12.5323-7.761-10.5707-.409ZM92.1428 401.787l7.2823 1.171 3.8809-1.171 3.303 2.822 10.232 4.29-13.041-10.033-11.6572 2.921ZM37.4972 374.794l3.7118 8.226h3.0766l7.0142 8.198 12.3912 1.82 8.4677 8.326 5.8287 1.707 3.3448 11.345-9.1735-6.928H61.2212l-1.8065-7.535-12.3488-1.172-5.8569 2.935-2.6674-4.021 3.5283-6.491-5.8993-4.515 1.3266-11.895Z" fill="#63BACD" style="mix-blend-mode:screen" opacity=".5"/>
     </g>
     <path d="m-36.0598 394.139 9.8791-2.822 5.1795 2.822 5.5041-2.822 7.40932 7.648 9.90733 1.284 3.50003 5.348 11.10692.889 7.7339 4.642 5.6452-1.115 4.5868 6.35 7.0141 5.418 11.234 3.048.0988 3.994h9.992l6.5908-5.87 3.9939 1.637 9.0606-.466 22.1154 8.226-5.2927 12.925v17.145h-139.253l3.9939-68.281Z" fill="url(#e)"/>
     <path d="m47.4046 441.282 13.4497-4.586 3.8952 2.3 4.9254-2.3 8.115 2.3 6.7037-6.886h9.5262l3.0908-3.316 5.1084-5.616 8.299-1.876 3.881-3.26 13.605-.86 4.94 1.171 3.909-3.288 6.887-6.166 4.728 1.227 5.645-2.624 5.829-3.965 3.232-6.11h3.401l10.316-12.234 23.089-1.411 26.349-16.693 21.706 8.354 8.214-7.183 24.034-4.938v94.54l-106.412 23.96-75.7443 1.213-70.5227-34.571 12.7864-6.829 7.0142-.353Z" fill="url(#f)"/>
     <g style="mix-blend-mode:screen" opacity=".58">
       <path d="M166.575 397.427h4.318l2.823-3.88h5.575l6.223-6.59 14.466-3.175-23.089 1.411-10.316 12.234ZM94.0198 432.11l5.2924-.818 2.1168-3.288 7.057.819 6.703-4.346h11.644l2.356-2.822h-14.24l-.55-3.613-3.881 3.26-8.299 1.877-8.1992 8.931ZM132.943 418.353l6.478-.932 2.823-3.527h8.341l6.125.592 3.528-3.767-1.058-2.822.762-4.36-5.829 3.965-5.645 2.624-4.728-1.227-10.797 9.454Z" fill="#63BACD" style="mix-blend-mode:screen" opacity=".58"/>
     </g>
     <path d="m57.086 462.462 11.0082-5.418h13.238l9.625-3.923 8.242 2.751 22.8068-11.641 7.183 2.47h21.438l9.964-3.768 7.988 2.596 20.661 9.172 22.539 7.761-7.918 26.33-171.6421 1.411 24.8671-27.741Z" fill="url(#g)"/>
    <g class="m3">
     <path d="m228.771 414.486-2.823-2.116-1.58 2.116h-2.823l-.875 2.3h-2.117l-3.556 4.234h-2.428l-1.228 2.822h-2.286v2.652h-1.411l-1.736 2.117h-2.117l-1.934 3.175h-1.58l-2.287 2.653h-2.357l-1.411 1.594h-1.736l-1.58 3.175h-1.765l-2.286 3.88h-3.726l-2.441 2.653s-2.075-.522-2.357 0c-.282.522-2.399 3.88-2.399 3.88l-4.94.353s-1.609 2.653-2.752 2.47c-1.143-.184-3.077-.523-3.077-.523l-5.292 2.47h-1.722l-1.27 2.3-3.697.183-1.581 3.006c-2.42 1.103-4.776 2.342-7.057 3.711-.705.705-3.725 4.064-3.725 4.064h-4.742c-.89.72-1.834 1.371-2.823 1.947-1.493.458-3.031.756-4.587.889h-3.881l-2.286 2.653h-15.524l-2.823-1.411-3.345.352-1.9333-2.638-2.4698-.353-1.8911-1.792h-1.9053l-2.6391-1.834-3.6976.705-4.0505-2.286-2.8226.706-3.1754-1.835h-1.6371l-2.6391-1.51-3.3307 1.496-3.7258-3.979-4.9396.706-4.0363-4.417-2.8226.889-1.5807-4.403-5.5605-.352-5.7299-4.756-4.2339.184-2.1734-4.586-2.244.706-1.0584-1.059-2.4698 1.059-3.9375-3.881-1.7077.706-2.2863-4.756-1.5807.537-1.7641-1.764-2.3569.183-2.9355-4.233H7.01311l-1.90525-3.217-1.4113-.522-2.893164.536v-3.231H-3.00712l-3.34478-5.644-13.4356-5.108-7.9033-8.255v127.276H228.771V414.486Z" fill="#0B5D77"/></g>
     <path d="m-29.1726 419.778 2.0181-.536v-3.09l1.1573-2.823 1.0726 3.218v2.596l.9879 2.469 1.2984-1.58 1.0585-4.106.748 3.344.3669 3.894h2.498l.8609-1.665v-.762l.8044-2.723.367 3.217-.5504.748.5504 1.171 1.0584-.748v-1.114l.4375-1.863.494 2.286v.931l.748 1.171.8044 1.242v1.143l.7762-.282v-1.171l.621-.551-.2258-.874.4516-1.172.5928 1.412-.3387.409.2681 1.171v.578l.40928.833.3246-.663-.07056-.466.36694-.832.16935 1.072-.16935.395.25403.889.45162-.48.28226-1.256.14113 1.228.4375.96.18347.663.36694-.762.45161-1.044.18347 1.806v.832l.23992.452.81856 1.143.15524.621.52219-.339.15524-1.199.49395-.932.15524 1.51v1.115s.43751.748.46573.832c.02823.085.0988.988.0988.988l.52218-.705v-.621l.15524-.988.21169.988.25404.677-.15524 1.016.67742 1.326.31049-.776-.15524-.931.33871-1.707.437501 1.707v.621l.282261 1.27.183467 1.199c.2266469-.36.433934-.732.620972-1.115 0-.098-.155243-.804-.155243-.804l.550404-1.199.2117 2.046v.931s.282258.96.310478 1.143c.02823.183 1.08671 0 1.08671 0v-1.326l.36694-.988.21169 1.411v1.044l.4375 1.242.55041-.649v-1.51l.43751 2.159v1.143l.31048.959.49396-1.114.4375-1.482v1.326l.39516.96v.621l.93146-.311v-1.143l.25404-1.326.46572 1.411v1.143l.49396 1.975.59275-.592.18347-.48-.31049-.677.66331-1.341.36694 1.609s-.22581.592-.22581.635c0 .042.29638.903.29638.903l.49392 1.044-.127.296.3105-.451v-.649l.1694-.522.2117.606v.522l.2116.762h1.0021l.5221-.733.5787-1.538.5222 1.848-.3952 1.058.6069 1.877.6209-.635c.1136-.462.1704-.935.1694-1.411l.875-3.048v4.854l.3528 1.242.7339-.79.2964-1.059.4375-2.172.4093 2.356-.3247 1.411.3247 1.877h1.4113v-1.03l.1411-1.877c.1613-.481.3497-.952.5645-1.411v5.475s.8468 1.086.8468.973c0-.113.5645-1.411.5645-1.411l.5222-1.792.3528 2.413v1.708l.4234 1.142s.748-1.171.7762-1.255c.0282-.085-.2964-1.03-.2117-1.171.0847-.142.7621-2.258.7621-2.258l.5928 2.61-.5928 1.143.5222 1.679.8468 1.2c.4454-.401.8693-.825 1.2701-1.27-.1206-.461-.1776-.935-.1693-1.411.0847-.325.4657-2.201.4657-2.201l.3811 3.118c-.1409.241-.2231.512-.2399.79 0 .325.2399 2.385.2399 2.385s1.002-.565 1.002-.734c0-.169.0847-1.792.0847-1.905 0-.113.381-1.411.381-1.411l.3811 1.707v1.143l.4093 1.411v1.412l.7621 1.707 1.0302-1.411v-2.413l1.4113-3.556c.0847-.212.3246 3.147.3528 3.231.0283.085-.5221 1.68-.5221 1.764 0 .085.4939 2.06.4939 2.06l-.0847 1.143 1.0585 1.002 1.4113-1.411-.3105-2.244.6633-3.753.7057 4.459-.3528 2.074c.1971.959.3292 1.93.3951 2.907-.0689 1.088-.0263 2.18.127 3.26l1.1432 2.822.621-1.679-.2258-1.722.875-3.048v-1.933l.6633 2.737v1.637l.3951 3.048v.974l1.0162-.663.0847-2.286.9738-2.47v-1.284l.7056 4.586c-.0443.63-.0443 1.261 0 1.891.0847.268.3952 1.721.3952 1.721l.5786-.874.5222-2.597.748-1.58v2.032l-.2682 2.342.2682 1.637 1.1431.621.875-1.284-.2258-1.891.7904-1.891.5786 3.965.7056 2.343 2.3851 1.185s1.1432-2.822 1.1432-2.992c0-.169.2117-3.344.2117-3.344l.9456-1.143v3.175l-.5222 1.411.5222 2.074-.4375 1.143.9314 2.427-.7903.706 1.1008 2.201 1.2843-2.342-.2682-1.327s1.0162-1.495.875-1.721c-.1474-.399-.2607-.81-.3387-1.228 0 0 .9879-4.995 1.0444-4.769l.9314 4.417c-.0489.229-.1247.451-.2258.663-.1552.31.875 2.159.875 2.159l-.4375.931.4375 1.764s1.2843-2.554 1.2279-2.695c-.2154-.681-.3898-1.373-.5222-2.075l.8327-2.737.7903 3.006.5222 1.269v2.075l1.4113 1.1 1.7218-3.344v-2.822l.3528-1.538s.5222 1.594.5786 1.806c-.0298.347-.1057.689-.2258 1.016l1.0585 4.628 1.0585-1.89c-.0923-.466-.1489-.938-.1694-1.412 0-.268.748-2.949.748-2.949l.9315 3.218-.4375.832.875 2.822 2.8226 1.087 1.2842-2.907v-1.101l.4375-1.637.875 2.47s-.3951.395-.3528.536c.0424.141.6633 2.653.6633 2.653l1.5807-.522v-2.159s.5786-1.581.6633-1.327l1.2843 4.008v.931l1.8911.311c.2412-.888.4344-1.787.5787-2.696 0-.268.7056-1.326.7056-1.411 0-.084-.5786-1.933-.5786-1.933l.5786-3.485.7903 3.443v5.828s1.4113-2.117 1.4113-2.244c0-.127.2682-2.286.2682-2.286l.748 3.09 1.1855 2.738.6209-2.032-.3104-.974c.1364-.64.3108-1.271.5221-1.891l1.0585 3.048.621 2.47h1.6371l.2964-1.016-.2541-2.329.8327-2.074.621 2.032v1.016l.3105.974v1.763l1.5806 1.411c-.1554-.394-.2598-.806-.3105-1.227 0-.268.5787-1.849.5787-1.99 0-.141.3105-2.455.3105-2.455l.6209 2.709v1.722l.7057 1.538.4375-1.101v-1.891l1.2278-2.977.3952 3.457-.127.931.7903 1.948 1.4113 1.721 1.1433-1.016-.395-.621s1.284-4.36 1.411-4.233c.127.127.706 3.048.748 3.358-.059.698-.162 1.391-.311 2.075l.579 1.185 2.823 1.496v-2.117l.974-4.318 1.411 2.724-.706 2.906s1.764 4.502 1.764 4.234c0-.269 1.68-6.35 1.68-6.35v-3.344l1.058-3.091 1.143 4.671-.875 1.242.889 3.711v2.032l1.327 2.906-.621 1.496 1.496 4.501 1.143-3.033s-.522-1.905-.522-2.173 1.327-2.47 1.059-2.738c-.269-.268-.791-.875-.523-1.227.269-.353 1.948-7.14 1.948-7.14l1.327 5.475-.833 1.411.833 2.822 1.002 1.848 1.1-3.499.551-2.822.974 2.906v2.554h1.496l1.143-2.074-.311-1.326c0-.169.579-2.032.664-1.411.084.621.621 3.048.621 3.048l-.269.79.269 2.074 1.411 2.385c.188-.514.335-1.043.437-1.581 0-.169-.437-1.016-.437-1.016s.621-3.922.663-3.654l.536 3.217-.169 1.016s.621 1.411.663 1.594c.505.295 1.034.545 1.581.748l.621-2.469.311-2.244.395 1.284v1.539l.48 1.989.621 1.538.31-.578-.226-1.143 1.101-3.345 2.032 5.645-.621.479.621 1.327.974-1.143c-.06-.476-.149-.947-.268-1.411-.071 0 .268-3.373.268-3.373l.79 3.57-.268 1.327.537 1.637 1.242.352-.099-1.1.48-2.554.55 2.074v2.117l1.919 1.594-.225-1.185-.353-1.143.578-4.713 1.242 6.434v1.327l1.101-2.512.353-2.427.974 4.939.832-1.581.438-2.695.268 2.822.889 3.401 1.722-1.228c.036-1.167.139-2.33.31-3.485.127 0 .833 3.838.833 3.838l1.228 15.366H-36.0598l6.8872-104.657Z" fill="#0E4764"/>
     <path d="m292.66 425.337-2.992-.578v-3.302l-1.721-3.048-1.581 3.443v2.822l-1.411 2.653-1.92-1.693-1.566-4.389-1.101 3.57-.551 4.233h-3.711l-1.285-1.792v-.874l-1.199-2.907-.551 3.443.833.79-.833 1.256-1.566-.79v-1.186l-.649-1.989-.734 2.441v.988l-1.101 1.255-1.2 1.327v1.227l-1.143-.296v-1.256l-.917-.592.339-.946-.664-1.241-.875 1.523.508.438-.395 1.242.099.62-.593.904-.48-.72.113-.494-.55-.903-.254 1.143.254.409-.367.946-.663-.508-.41-1.412-.211 1.313-.649 1.03-.283.719-.55-.818-.663-1.115-.283 1.919v.903l-.338.48-1.228 1.214-.226.663-.776-.367-.226-1.284-.734-.988-.226 1.623v1.284s-.649.79-.691.889c-.043.099-.141 1.058-.141 1.058l-.777-.762v-.663l-.225-1.058-.325 1.058-.367.734.226 1.086-1.016 1.411-.466-.832.226-.988-.508-1.82-.65 1.82v.663l-.409 1.411-.282 1.284c-.329-.376-.636-.772-.917-1.185 0-.099.225-.861.225-.861l-.832-1.284-.325 2.187v.988s-.409 1.03-.466 1.228c-.056.197-1.608 0-1.608 0v-1.411l-.551-1.059-.324 1.412v1.114l-.65 1.341-.832-.692v-1.622l-.65 2.314v1.227l-.465 1.03-.734-1.185-.649-1.594v1.411l-.593 1.03v.663l-1.411-.325v-1.227l-.367-1.411-.692 1.524v1.227l-.734 2.117-.875-.635-.282-.508.466-.72-.988-1.411-.551 1.722s.339.635.339.691c0 .057-.452.96-.452.96l-.747 1.114.183.311-.466-.48v-.691l-.24-.565-.31.649.099.565-.311.818h-1.482l-.79-.776-.847-1.651-.79 1.976.593 1.128-.904 2.004-.917-.677c-.198-.141-.268-1.51-.268-1.51l-1.313-3.26v5.193l-.522 1.327-1.087-.847-.451-1.129-.678-2.441-.606 2.512s.479 1.411.479 1.566c0 .155-.479 2.018-.479 2.018h-2.089v-1.101l-.212-2.018c-.246-.488-.524-.959-.833-1.411v5.842s-1.27 1.157-1.27 1.044c-.252-.485-.53-.956-.832-1.411l-.791-1.919-.522 2.582v1.821l-.635 1.213s-1.115-1.256-1.157-1.411c-.043-.155.437-1.101.31-1.256-.127-.155-1.129-2.427-1.129-2.427l-.875 2.822.875 1.228-.79 1.792-1.27 1.284s-1.877-1.256-1.877-1.411c0-.155.395-1.101.268-1.411-.127-.311-.692-2.357-.692-2.357l-.564 3.33c.2.241.323.536.353.847 0 .353-.353 2.54-.353 2.54s-1.482-.593-1.482-.79c0-.198-.127-1.919-.127-2.046 0-.127-.565-1.567-.565-1.567l-.564 1.821v1.227l-.607 1.567.085 1.566-1.129 1.82-1.525-1.538v-2.54l-2.131-3.81c-.24 1.142-.414 2.296-.522 3.457 0 .099.791 1.793.791 1.891 0 .099-.748 2.202-.748 2.202l.127 1.227-1.567 1.072-2.159-1.509.451-2.399-.988-4.007-1.044 4.755.522 2.215c-.293 1.019-.492 2.063-.592 3.119.099 1.165.032 2.338-.198 3.485l-1.708 2.977-.917-1.792.324-1.834-1.312-3.26v-2.074l-.988 2.921v1.75l-.466 3.301v1.045l-1.51-.706-.127-2.455-1.411-2.639v-1.411l-1.044 4.911c.066.675.066 1.356 0 2.031-.127.283-.593 1.835-.593 1.835l-.847-.946-.79-2.822-1.115-1.693v2.173l.395 2.498-.395 1.749-1.708.664-1.312-1.412.324-2.031-1.171-2.032-.847 4.233-1.044 2.497-3.529 1.27s-1.707-3.062-1.707-3.203c0-.141-.311-3.584-.311-3.584l-1.411-1.227v3.4l.79 1.552-.79 2.216.649 1.227-1.806 2.47s-3.162-2.23-2.964-2.47c.213-.418.378-.858.494-1.312 0 0-1.411-5.334-1.538-5.108l-1.412 4.713c.073.25.182.488.325.705.226.325-1.313 2.315-1.313 2.315l.65.987-.65 1.891c-.664-.905-1.277-1.847-1.834-2.822.321-.717.585-1.457.79-2.215l-1.242-2.921-1.171 3.203-.776 1.411v2.215l-2.047 1.186-2.554-3.585v-2.977l-.522-1.651s-.791 1.693-.847 1.933c.043.379.153.747.324 1.087l-1.566 4.953-1.567-2.032c.145-.507.235-1.027.268-1.552 0-.283-1.115-3.161-1.115-3.161l-1.411 3.443.649.889-1.312 3.09-4.121 1.157-1.764-3.189v-1.185l-.649-1.75-1.313 2.639s.593.423.522.564c-.07.141-.988 2.822-.988 2.822l-2.357-.564v-2.314s-.846-1.694-.987-1.411l-1.892 4.233v.988l-2.822.324c-.349-.92-.631-1.863-.847-2.822 0-.282-1.044-1.411-1.044-1.552 0-.141.846-2.074.846-2.074l-.846-3.726-1.172 3.683v6.223s-2.159-2.258-2.159-2.399c0-.141-.395-2.455-.395-2.455l-1.115 3.302-1.764 2.921-.918-2.173.452-1.044c-.211-.697-.475-1.376-.79-2.032l-1.567 3.259-.917 2.639h-2.428l-.437-1.087.381-2.497-1.242-2.216-.917 2.173v1.087l-.452 1.044v1.891l-2.357 1.51c.223-.414.376-.863.452-1.327 0-.282-.847-1.975-.847-2.116 0-.141-.452-2.625-.452-2.625l-.917 2.907v1.834l-1.044 1.651-.65-1.185v-2.032l-1.834-3.189-.593 3.697.198.988-1.172 2.074-2.032 1.834-1.7077-1.086.5927-.663c-.5791-1.52-1.2483-3.005-2.004-4.445-.1271.183-1.0444 3.259-1.115 3.584.0856.75.2367 1.491.4516 2.215l-.8467 1.27-4.2339 1.609v-2.258l-1.4113-4.614-2.2299 2.822 1.0444 3.119s-2.6109 4.811-2.6109 4.529c0-.282-2.4839-6.787-2.4839-6.787v-3.584l-1.6089-3.316-1.7077 4.995 1.3125 1.326-1.3125 3.965v2.173l-1.9617 3.062.9174 1.609-2.2299 4.812-1.7077-3.246c.3065-.756.5704-1.528.7904-2.314 0-.282-1.9617-2.639-1.5666-2.921.3952-.282 1.1714-.945.7903-1.326-.381-.381-2.8226-7.634-2.8226-7.634l-1.9617 5.842 1.242 1.411-1.242 3.076-1.4113 1.975-1.623-3.753-.8185-3.048-1.4113 3.119v2.737h-2.2299l-1.7076-2.215.4516-1.411c0-.184-.8468-2.173-.9879-1.553-.1412.621-.9174 3.26-.9174 3.26l.3952.847-.3952 2.215-2.0887 2.54c-.2758-.54-.4935-1.108-.6492-1.693 0-.184.6492-1.087.6492-1.087s-.9174-4.233-.9879-3.909l-.8468 3.472.2682 1.086s-.9174 1.552-.988 1.693c-.7665.322-1.5539.59-2.3568.805l-.9174-2.639-.4516-2.399-.5927 1.411v1.651l-.7198 2.117-.9174 1.651-.4516-.607.3246-1.228-1.6653-3.64-3.0061 6.081.9174.523-.9174 1.411-1.4113-1.228c.0852-.537.2174-1.066.3952-1.58.1129 0-.3952-3.613-.3952-3.613l-1.2278 3.838.3952 1.411-.7904 1.75-1.8488.381.1553-1.185-.7339-2.738-.8186 2.216v2.257l-2.8226 1.694.3246-1.27.5222-1.228-.8468-5.051-1.8629 6.914v1.411l-1.6371-2.681-.5222-2.597-1.4113 5.278-1.2419-1.693-.6492-2.823-.3952 3.062-1.3407 3.57-2.5545-1.326c-.0507-1.252-.2018-2.498-.4516-3.725-.4969 1.342-.9116 2.713-1.2419 4.106l-1.8347 3.626h281.286l-10.232-98.971Z" fill="#083753"/>
     <path d="M274.299 284.896c-31.392 1.472-62.53 6.36-92.863 14.576l-5.293 13.87c-6.491 2.767-12.815 5.909-18.939 9.412-6.817 4.233-6.591 5.404-6.591 5.404v6.816c-5.551 1.909-10.554 5.139-14.579 9.412-6.591 7.055-5.179 6.815-5.179 6.815l10.345 22.577 35.79 6.815c.767 2.251 1.902 4.358 3.359 6.237 2.117 2.469 5.292 5.644 5.292 5.644l13.055 2.117 13.76 28.573-6.605 34.105-13.407 26.81-4.474 40.215h86.315l.014-239.398Z" fill="#073255"/>
     <path d="m130.869 351.215 10.345 22.577 35.79 6.815 8.51-6.575v-6.59l11.065-3.753 2.583-4.473 17.401-6.11v-3.768l-52.684 3.528-4.939-2.356-28.071.705ZM150.627 334.988l21.127-1.637 3.655-4.586 14.819-2.596.932-2.342-40.533 4.346v6.815ZM176.143 313.357l10.077-2.583 2.71-3.682 6.816-1.736 1.299-3.175-15.609-2.695-5.293 13.871ZM198.71 394.605l14.099 1.538 2.667 5.404h3.839l1.016 7.295-7.861 14.337-13.76-28.574ZM192.458 484.093l7.508-1.876 6.93-8.241 8.58-3.287 10.035-13.645H213.74l-6.195-8.481-1.68 8.721-13.407 26.809Z" fill="#0E4266"/>
     <path d="M201.166 295.606h-54.222v3.88h54.222v-3.88Z" fill="#02284C"/>
     <path d="m202.521 269.797-40.999-6.039v31.848h40.999v-25.809Z" fill="#02284C"/>
     <path d="m154.153 261.254-.411 2.792 56.158 8.261.411-2.792-56.158-8.261ZM155.355 297.539h-2.823v29.11h2.823v-29.11Z" fill="#02284C"/>
     <path d="m166.074 296.718-13.288 19.102 2.317 1.612 13.289-19.102-2.318-1.612Z" fill="#02284C"/>
     <path d="M180.222 275.258h-9.639v9.638h9.639v-9.638Z" fill="#FBE57F"/>
     <path d="M243.349 289.834c-.239-1.044.791-1.919 1.172-2.92.55-1.412-.226-3.006-.494-4.53-.302-2.35.326-4.724 1.75-6.618 1.418-1.867 3.074-3.542 4.925-4.981-1.622.866-3.335 1.547-5.109 2.032-.648-2.004-.648-4.162 0-6.166.41-.931 1.087-1.707 1.553-2.596 1.722-3.288.579-8.015 3.472-10.343l-4.404 1.777c.941-4.402 2.042-8.776 3.303-13.122l-2.286.663c.352-7.055 3.09-6.209 4.6-18.344 2.936 10.498 5.448 13.236 6.902 18.005-1.211-.237-2.387-.625-3.5-1.157-.087 4.226.853 8.409 2.738 12.192 1.1 2.187 2.54 4.416 2.356 6.857l-2.822.071 2.822 6.223c1.172 2.54 2.329 5.644.847 8-.207.254-.335.563-.367.889 0 .48.508.79.903 1.059 3.148 2.088 3.896 6.307 4.375 10.06l-22.736 2.949Z" fill="#073255"/>
     <path d="M255.317 288.325c-.326-1.474-.326-3 0-4.473.785-3.754 1.987-7.408 3.585-10.894.875-2.079 1.769-4.153 2.681-6.222.469-.871.739-1.835.791-2.823-1.909 1.103-4.076 1.677-6.28 1.665.098-2.935 3.429-4.868 3.881-7.774.169-1.045 2.3-8.467 4.473-10.132-1.743.722-3.593 1.151-5.475 1.27 2.575-5.333 4.253-11.054 4.967-16.932-.844.551-1.816.877-2.822.945-.805-2.413 1.129-4.755 2.23-7.055 2.159-4.516 1.115-13.857 3.429-18.344 2.131 3.923 2.682 9.962 3.444 14.379.502 1.629 1.124 3.218 1.863 4.755.804 1.919 2.596 3.499 2.667 5.644-1.324-1.064-2.988-1.615-4.686-1.552.715.653 1.316 1.421 1.779 2.272.489.966.867 1.983 1.129 3.034 1.143 4.12 1.736 8.466 4.234 12.036 1.764 2.526.169 4.501 1.114 5.404-.757-.67-1.672-1.137-2.66-1.357-.987-.22-2.014-.185-2.985.101 3.678 5.18 5.767 11.319 6.012 17.667-1.529-.366-3.098-.541-4.671-.522 3.998 4.908 6.348 10.951 6.718 17.271-5.899-.212-12.236.917-18.135.903-2.696.014-4.869-.579-7.283.734ZM241.741 295.027c.204-.93.204-1.892 0-2.822-.497-2.387-1.259-4.711-2.273-6.928-.555-1.327-1.124-2.644-1.707-3.951-.3-.562-.469-1.184-.494-1.821 1.214.701 2.592 1.066 3.994 1.059 0-1.863-2.188-3.09-2.47-4.939-.099-.663-1.411-5.348-2.823-6.448 1.11.457 2.288.729 3.486.804-1.642-3.404-2.71-7.056-3.161-10.809.54.355 1.162.564 1.806.607.523-1.538-.719-3.034-1.411-4.487-1.411-2.822-.706-8.819-2.187-11.641-1.412 2.497-1.708 6.335-2.188 9.143-.319 1.04-.715 2.054-1.185 3.034-.508 1.228-1.652 2.23-1.694 3.556.843-.675 1.899-1.025 2.978-.988-.451.406-.832.883-1.129 1.411-.312.616-.553 1.264-.72 1.933-.72 2.625-1.101 5.433-2.667 7.648-1.129 1.609-.113 2.822-.706 3.443.481-.426 1.062-.724 1.689-.864.627-.141 1.279-.12 1.896.06-2.348 3.31-3.678 7.233-3.825 11.288.976-.23 1.976-.339 2.978-.324-2.574 3.128-4.09 6.991-4.333 11.034 3.754-.141 7.777.579 11.545.579 1.679-.029 3.105-.41 4.601.423Z" fill="#073255"/>
     <path d="M248.345 296.212c.161-.72.161-1.467 0-2.187-.382-1.833-.969-3.617-1.75-5.319-.423-1.016-.86-2.028-1.312-3.034-.232-.436-.362-.918-.381-1.411.93.54 1.987.822 3.062.818 0-1.411-1.665-2.37-1.891-3.796-.084-.508-1.129-4.106-2.187-4.938.849.352 1.75.561 2.667.621-1.261-2.613-2.082-5.417-2.427-8.297.42.278.907.439 1.411.465.395-1.171-.55-2.314-1.087-3.443-1.058-2.201-.536-6.759-1.679-8.918-.905 2.256-1.471 4.634-1.68 7.056-.242.797-.544 1.575-.903 2.328-.395.931-1.27 1.707-1.298 2.723.646-.52 1.457-.79 2.286-.762-.347.321-.638.698-.861 1.115-.233.449-.418.922-.55 1.411-.345 2.058-1.037 4.043-2.047 5.87-.861 1.228-.084 2.201-.536 2.639.37-.326.816-.553 1.298-.659.481-.106.982-.088 1.454.052-1.795 2.528-2.815 5.524-2.935 8.621.744-.177 1.507-.262 2.272-.253-1.973 2.4-3.134 5.364-3.317 8.466 2.823-.113 5.97.437 8.849.437 1.195-.194 2.42-.058 3.542.395Z" fill="#073255"/>
     <path d="M5.29133 527.187c.2117-.96-.71976-1.75-1.07259-2.667-.50807-1.312.2117-2.737.45162-4.134.27706-2.144-.29527-4.312-1.59477-6.04-1.29226-1.703-2.800937-3.23-4.48794-4.543 1.4784282.792 3.0405 1.416 4.65729 1.862.59532-1.834.59532-3.81 0-5.644-.36694-.846-.98791-1.552-1.4113-2.37-1.566541-3.006-.52218-7.31-3.16131-9.44l4.00809 1.622c-.94086-4.016-1.947594-8.005-3.020181-11.965l2.088721.606c-.32459-6.476-2.8226-5.644-4.2339-16.777-2.68147 9.581-4.98189 12.065-6.2944 16.425 1.10345-.218 2.17508-.573 3.18954-1.059.0778 3.854-.77931 7.669-2.498 11.119-1.00202 2.004-2.3145 4.022-2.1593 6.251h2.52624l-2.61094 5.645c-1.0726 2.314-2.1169 5.122-.7762 7.295.1922.233.3102.518.3387.818 0 .438-.4657.72-.8326.96-2.8226 1.905-3.5565 5.757-3.994 9.171l20.88723 2.865ZM283.826 526.453c-1.252-9.499-3.719-18.799-7.339-27.671l5.278 2.075c-2.568-5.814-5.358-11.524-8.369-17.13l3.401 1.227c-.211-3.09-2.286-5.743-3.034-8.762-.522-2.131-.381-4.375-.804-6.519-.424-2.145-1.694-4.375-3.811-4.925.325-.42.798-.7 1.322-.784.524-.084 1.061.035 1.501.332 1.51-3.301-1.637-6.744-2.583-10.258-.861-3.245.155-7.055-1.694-9.877-2.116 2.328-.931 5.545-1.735 8.593-.416 1.254-.955 2.465-1.609 3.612-1.395 2.84-2.211 5.929-2.4 9.088l2.146-.466c-1.412 2.102-1.496 4.783-1.92 7.281-.648 3.752-2.15 7.305-4.389 10.385 1.67.492 3.426.626 5.151.395-2.681 1.905-2.822 5.644-3.203 8.989-.041 1.217-.36 2.409-.932 3.485-1.524 2.483-5.433 3.401-5.758 6.293 2.387.626 4.888.675 7.297.141-1.556 4.815-3.713 9.414-6.422 13.687-1.662 2.725-3.679 5.216-5.998 7.408l6.337.269c-.32 1.88.072 3.812 1.101 5.418l28.466-2.286ZM185.119 545.883c-.677-5.13-2.01-10.152-3.966-14.943l2.823 1.115c-1.383-3.142-2.893-6.227-4.53-9.256l1.834.663c-.112-1.679-1.241-3.105-1.637-4.727-.282-1.143-.211-2.357-.437-3.528-.066-.59-.294-1.151-.657-1.622-.363-.47-.849-.831-1.404-1.045.176-.222.429-.37.709-.414.279-.045.566.018.801.174.819-1.792-.889-3.64-1.411-5.545-.522-1.905-.31-3.372-.917-5.306-.522 1.877-.791 5.532-1.228 7.169-.183.691-1.778 2.638-1.877 4.331l1.157-.254c-.618 1.226-.973 2.567-1.044 3.937-.345 2.039-1.157 3.971-2.371 5.644.915.271 1.877.343 2.822.212-1.411 1.03-1.566 3.09-1.735 4.854-.021.655-.189 1.297-.494 1.877-.819 1.411-2.936 1.834-3.105 3.4 1.288.333 2.637.357 3.937.071-.841 2.601-2.007 5.085-3.471 7.394-.9 1.474-1.991 2.822-3.246 4.007l3.415.141c-.176 1.018.035 2.065.593 2.935l15.439-1.284Z" fill="#02284C"/>
     <path d="M238.255 527.977c.219-1.455.769-2.841 1.609-4.05.789-.876 1.402-1.897 1.806-3.005.109-1.261-.069-2.53-.522-3.711-.219-.595-.277-1.237-.168-1.862.109-.624.381-1.209.789-1.694-1.142.604-2.477.731-3.712.353.169-1.059 1.157-1.778 1.792-2.639 1.412-1.919 1.172-4.572 1.595-6.928.616-2.508 1.652-4.893 3.063-7.055-1.287.765-2.739 1.21-4.234 1.298 1.735-3.004 3.005-6.254 3.768-9.638-.794.458-1.733.594-2.625.381 2.456-2.822 2.71-6.618 3.034-10.385.424-4.911 1.412-8.466 1.934-13.222.169 3.189 1.087 8.128 1.312 10.922.226 2.794 2.724 6.533 3.26 7.944-.227-.311-.525-.565-.868-.741-.342-.176-.722-.27-1.107-.275.994 3.922 2.195 7.789 3.598 11.585l-1.99.169c1.859 2.757 2.959 5.954 3.19 9.271l-1.835.155c.607 1.411-.24 3.133.395 4.529.289.505.629.978 1.017 1.412 2.004 2.695 1.411 7.154 4.234 8.861-1.223.035-2.443-.151-3.599-.55-.508.254-.339 1.03 0 1.524 1.312 2.201 3.429 3.993 4.05 6.49.047.11.071.227.071.346 0 .119-.024.237-.071.346-.127.197-.508.211-.578 0l.818 1.411-20.026-1.242ZM193.178 536.965c.143-1.013.52-1.979 1.101-2.822.542-.6.964-1.3 1.241-2.06.078-.867-.043-1.74-.352-2.554-.151-.408-.191-.849-.117-1.277.074-.429.261-.83.54-1.164-.786.415-1.705.501-2.554.24.127-.734.79-1.213 1.227-1.806.988-1.326.805-3.147 1.101-4.769.418-1.74 1.129-3.396 2.103-4.897-.887.532-1.889.841-2.921.903 1.194-2.062 2.07-4.293 2.597-6.618-.546.317-1.193.413-1.807.269 1.694-1.976 1.863-4.544 2.089-7.14.282-3.373.945-5.856 1.326-9.088.113 2.188.748 5.645.904 7.507.155 1.863 1.863 4.487 2.244 5.461-.162-.222-.374-.403-.62-.525-.245-.123-.517-.185-.792-.181.683 2.695 1.507 5.351 2.47 7.959l-1.411.113c1.311 1.896 2.095 4.107 2.272 6.406l-1.256.099c.409.973-.169 2.159.268 3.118.196.348.427.675.692.974 1.411 1.848.959 4.91 2.935 6.095-.839.024-1.676-.106-2.47-.381-.352.17-.225.706 0 1.045.904 1.509 2.357 2.751 2.823 4.459.033.075.049.157.049.239 0 .083-.016.165-.049.24-.085.141-.353.156-.395 0l.564.974-13.802-.819Z" fill="#02284C"/>
     <path d="M226.682 467.302c.03 1.127-.142 2.25-.508 3.316-.296.705-.748 1.326-1.087 2.004-1.006 1.863-1.589 3.925-1.707 6.039.919-.01 1.818-.273 2.596-.762-1.538 12.403-4.516 10.71-5.857 15.522 2.668-.692 3.359-2.018 5.448-2.724-1.101 1.476-1.727 3.253-1.792 5.094.057 1.041.014 2.085-.127 3.118-.297 1.299-1.172 2.385-1.595 3.641-.522 1.552-.381 3.401-1.411 4.642-.89 1.016-2.611 1.764-2.301 3.076 1.585.096 3.165-.256 4.559-1.016-3.529 6.393-7.156 13.123-7.311 20.432l26.561-1.411c-.423-3.118-2.823-5.644-4.008-8.466-1.539-3.626-1.299-7.958-3.5-11.288 1.268.894 2.796 1.345 4.347 1.284-1.623-1.205-2.768-2.944-3.232-4.911-1.592-4.575-2.819-9.27-3.67-14.04.673.676 1.489 1.191 2.388 1.508.899.318 1.858.429 2.806.327-2.584-2.333-4.557-5.265-5.744-8.537l-.819-7.38c1.153.773 2.549 1.095 3.924.903-2.103-1.129-2.823-3.767-3.246-6.11-1.228-6.194-1.976-12.389-3.204-18.569-.409 2.681-.579 5.517-.875 7.577-.357 2.228-.569 4.476-.635 6.731ZM187.166 504.935c.022.711-.154 1.414-.508 2.032-.297.437-.748.818-1.087 1.227-.951 1.023-1.549 2.324-1.708 3.711.887.002 1.766-.156 2.597-.465-1.538 7.633-4.516 6.589-5.857 9.552 2.667-.423 3.345-1.241 5.448-1.679-.5.369-.918.838-1.226 1.378-.309.539-.502 1.137-.567 1.755.057.642.014 1.29-.127 1.919-.296.79-1.171 1.411-1.594 2.243-.424.833-.381 2.103-1.412 2.822-1.03.72-2.611 1.087-2.3 1.891 1.544.065 3.088-.145 4.558-.621-3.528 3.937-7.155 8.072-7.31 12.573l26.561-.833c-.424-1.919-2.823-3.429-4.009-5.221-1.538-2.229-1.298-4.896-3.5-6.914 1.376.571 2.858.84 4.347.79-1.426-.553-2.583-1.634-3.232-3.019-1.554-2.727-2.785-5.625-3.669-8.636 1.578.89 3.388 1.284 5.194 1.129-2.359-1.198-4.346-3.018-5.744-5.263l-.819-4.544c1.247.485 2.591.674 3.923.551-.82-.295-1.55-.797-2.118-1.457-.569-.66-.957-1.456-1.128-2.311-1.227-3.81-1.975-7.62-3.203-11.429-.41 1.651-.579 3.4-.875 4.656-.356 1.362-.569 2.757-.635 4.163ZM43.4952 505.471c.0178.666-.0825 1.33-.2963 1.961-.1694.424-.4376.79-.6492 1.186-.5985 1.105-.9455 2.329-1.0162 3.584.5447-.006 1.0771-.162 1.5383-.452-.9173 7.366-2.6814 6.35-3.4718 9.214 1.5807-.409 1.99-1.199 3.2319-1.608-.6331.867-.9919 1.904-1.0302 2.977.0352.617.0115 1.236-.0706 1.848-.1694.762-.6915 1.411-.9456 2.159-.254.748-.2258 2.018-.875 2.822-.6492.805-1.5524 1.045-1.4113 1.835.9423.055 1.8812-.155 2.7097-.607-2.0887 3.796-4.2339 7.789-4.3327 12.121l15.7501-.804c-.254-1.849-1.6512-3.316-2.3851-5.024-.9032-2.159-.7621-4.713-2.0746-6.66.755.528 1.6618.796 2.5827.762-.9602-.728-1.6304-1.773-1.8911-2.949-.9432-2.713-1.67-5.497-2.1734-8.325.3986.4.882.705 1.4146.893.5325.188 1.1005.254 1.662.193-1.5286-1.387-2.6961-3.126-3.4012-5.065l-.4799-4.375c.6848.457 1.513.648 2.3287.537-.5652-.429-1.0307-.976-1.3644-1.602-.3338-.626-.528-1.317-.5691-2.025-.7339-3.669-1.1714-7.351-1.9053-11.02-.2399 1.594-.3387 3.274-.5221 4.487-.2012 1.303-.319 2.618-.3529 3.937ZM-1.55347 546.462c1.247621-9.499 3.70927-18.799 7.32465-27.671l-5.278264 2.131c2.568564-5.814 5.358234-11.524 8.369004-17.13l-3.40123 1.227c.2117-3.09 2.28631-5.743 3.0343-8.762.52218-2.131.38105-4.375.80444-6.519.42339-2.145 1.69357-4.375 3.81047-4.925-.3249-.42-.7976-.7-1.3219-.784-.5243-.084-1.0609.035-1.5007.332-1.51006-3.301 1.6371-6.744 2.5827-10.258.8609-3.245-.1552-7.055 1.6936-9.877 2.1169 2.328.9314 5.545 1.7359 8.593.4153 1.255.9542 2.465 1.6089 3.612 1.3947 2.84 2.2103 5.929 2.3992 9.088l-2.1452-.466c1.4113 2.102 1.496 4.783 1.9194 7.281.6483 3.752 2.15 7.305 4.3891 10.385-1.6703.492-3.4255.627-5.1512.395 2.6814 1.905 2.8226 5.645 3.2036 8.989.0411 1.217.3596 2.409.9315 3.485 1.5242 2.483 5.4335 3.401 5.7581 6.293-2.3864.626-4.8877.675-7.2965.141 1.5556 4.815 3.7131 9.414 6.4215 13.688 1.6618 2.724 3.6788 5.215 5.998 7.408l-6.3368.268c.3204 1.88-.0721 3.812-1.1008 5.418l-28.45177-2.342Z" fill="#02284C"/>
     <path d="M41.1948 543.174c-.219-1.455-.7695-2.841-1.6089-4.05-.7896-.876-1.4029-1.897-1.8064-3.005-.1093-1.261.0692-2.53.5221-3.711.2178-.593.275-1.233.1659-1.855-.109-.622-.3805-1.204-.7868-1.687 1.1438.599 2.4783.721 3.7117.339-.1694-1.059-1.1573-1.778-1.7924-2.639-1.4113-1.919-1.1713-4.572-1.5947-6.928-.6158-2.508-1.6512-4.893-3.0626-7.055 1.2871.765 2.7391 1.21 4.2339 1.298-1.7348-3.004-3.0052-6.254-3.7681-9.638.7941.458 1.7335.594 2.625.381-2.4557-2.822-2.7097-6.618-3.0343-10.385-.4234-4.911-1.4113-8.466-1.9335-13.222-.1693 3.189-1.0867 8.128-1.3125 10.922-.2258 2.794-2.6533 6.406-3.2319 7.817.2279-.311.525-.565.868-.741.3429-.176.7222-.271 1.1078-.275-.9944 3.922-2.1957 7.789-3.5988 11.585l1.99.169c-1.8581 2.757-2.9581 5.954-3.1896 9.271l1.8347.155c-.6069 1.411.2399 3.133-.3952 4.529-.2881.505-.6287.978-1.0161 1.412-1.9899 2.695-1.4113 7.154-4.2339 8.861 1.223.035 2.4423-.151 3.5988-.55.5081.254.3387 1.03 0 1.524-1.3125 2.201-3.4295 3.993-4.0504 6.49-.047.11-.0712.227-.0712.346 0 .119.0242.237.0712.346.127.197.508.211.5786 0l-.8185 1.411 19.9981-1.115ZM211.158 488.806c-.023.82.102 1.637.367 2.413.211.508.536.96.79 1.411.733 1.358 1.157 2.862 1.242 4.403-.67-.01-1.325-.205-1.891-.565 1.115 9.031 3.288 7.803 4.234 11.289-1.948-.494-2.442-1.411-3.966-1.976.805 1.075 1.263 2.369 1.312 3.711-.044.759-.015 1.519.085 2.272.212.946.861 1.736 1.172 2.653.381 1.129.282 2.483 1.072 3.386s1.905 1.284 1.68 2.244c-1.157.072-2.311-.183-3.331-.734 2.568 4.657 5.208 9.553 5.32 14.873l-19.348-.988c.31-2.272 2.032-4.064 2.921-6.166 1.115-2.639.946-5.8 2.54-8.17-.926.652-2.043.979-3.175.931 1.185-.879 2.02-2.148 2.357-3.584 1.157-3.33 2.049-6.746 2.667-10.216-.489.493-1.083.869-1.738 1.101-.655.232-1.354.314-2.044.239 1.9-1.695 3.354-3.832 4.234-6.222l.592-5.376c-.832.548-1.834.778-2.822.649 1.538-.819 2.032-2.738 2.371-4.445.903-4.516 1.411-9.017 2.329-13.532.296 1.961.423 4.021.649 5.517.231 1.618.359 3.248.381 4.882Z" fill="#02284C"/>
     <path class="rising-star" style="mix-blend-mode:screen" d="M267.399 233.784c-20.525-.83-41.078.713-61.25 4.6l-3.811.719-3.768.875c-2.512.593-5.052 1.129-7.55 1.764-4.954 1.411-10.034 2.639-14.903 4.374l-7.396 2.456-7.268 2.822c-4.911 1.763-9.554 4.106-14.353 6.222-2.413 1.016-4.671 2.329-7.056 3.514l-6.958 3.64c-4.474 2.696-9.032 5.348-13.464 8.184l-6.492 4.488c-2.145 1.524-4.389 2.949-6.464 4.586-4.233 3.146-8.3121 6.547-12.3626 9.976-16.1813 14.065-30.4446 30.195-42.4236 47.975 9.8826-19.409 22.2715-37.436 36.849-53.62 3.7117-4.035 7.4799-8.057 11.4602-11.852 1.933-1.962 4.064-3.726 6.096-5.645l6.196-5.517c4.234-3.527 8.665-6.886 13.04-10.315l6.845-4.741c2.301-1.552 4.545-3.245 6.944-4.642 4.77-2.822 9.456-5.955 14.423-8.466l7.396-3.979 7.578-3.613c5.024-2.511 10.274-4.473 15.525-6.688 2.61-1.03 5.264-1.947 7.917-2.921l3.966-1.411 4.022-1.284c21.589-6.987 43.913-11.457 66.529-13.32l.733 31.819Z" fill="url(#h)"/>
     <path class="star" style="mix-blend-mode:screen" d="M18.2534 113.07c2.9541 0 5.3488-2.395 5.3488-5.348 0-2.954-2.3947-5.348-5.3488-5.348s-5.3488 2.394-5.3488 5.348c0 2.953 2.3947 5.348 5.3488 5.348Z" fill="url(#i)"/>
     <path class="star" d="M18.2534 109.768c1.1302 0 2.0464-.916 2.0464-2.046s-.9162-2.046-2.0464-2.046c-1.1302 0-2.0464.916-2.0464 2.046s.9162 2.046 2.0464 2.046Z" fill="#FDDA01" style="mix-blend-mode:screen"/>
     <path class="star" style="mix-blend-mode:screen" d="M64.8687 216.429c2.9541 0 5.3488-2.394 5.3488-5.348 0-2.954-2.3947-5.348-5.3488-5.348s-5.3488 2.394-5.3488 5.348c0 2.954 2.3947 5.348 5.3488 5.348Z" fill="url(#j)"/>
     <path class="star" d="M64.8687 213.127c1.1301 0 2.0463-.916 2.0463-2.046s-.9162-2.046-2.0463-2.046c-1.1302 0-2.0464.916-2.0464 2.046s.9162 2.046 2.0464 2.046Z" fill="#FDDA01" style="mix-blend-mode:screen"/>
     <path class="star" style="mix-blend-mode:screen" d="M184.857 178.218c2.955 0 5.349-2.395 5.349-5.348 0-2.954-2.394-5.348-5.349-5.348-2.954 0-5.348 2.394-5.348 5.348 0 2.953 2.394 5.348 5.348 5.348Z" fill="url(#k)"/>
     <path class="star" d="M184.857 174.916c1.131 0 2.047-.916 2.047-2.046s-.916-2.046-2.047-2.046c-1.13 0-2.046.916-2.046 2.046s.916 2.046 2.046 2.046Z" fill="#FDDA01" style="mix-blend-mode:screen"/>
     <path class="star" style="mix-blend-mode:screen" d="M233.547 72.0081c2.954 0 5.349-2.3944 5.349-5.3479 0-2.9536-2.395-5.3479-5.349-5.3479s-5.349 2.3943-5.349 5.3479c0 2.9535 2.395 5.3479 5.349 5.3479Z" fill="url(#l)"/>
     <path class="star" d="M233.547 68.7061c1.13 0 2.047-.916 2.047-2.046s-.917-2.046-2.047-2.046c-1.13 0-2.046.916-2.046 2.046s.916 2.046 2.046 2.046Z" fill="#FDDA01" style="mix-blend-mode:screen"/>
     <path class="star" style="mix-blend-mode:screen" d="M99.6995 24.7944c2.5415 0 4.6005-2.0595 4.6005-4.6001 0-2.5405-2.059-4.6-4.6005-4.6-2.5409 0-4.6008 2.0595-4.6008 4.6 0 2.5406 2.0599 4.6001 4.6008 4.6001Z" fill="url(#m)"/>
     <path class="star" d="M99.6996 21.944c.9664 0 1.7504-.7834 1.7504-1.7497s-.784-1.7497-1.7504-1.7497c-.9665 0-1.75.7834-1.75 1.7497s.7835 1.7497 1.75 1.7497ZM21.2595 24.244c1.1302 0 2.0463-.916 2.0463-2.046s-.9161-2.046-2.0463-2.046c-1.1302 0-2.0464.916-2.0464 2.046s.9162 2.046 2.0464 2.046ZM209.64 243.267c1.13 0 2.046-.916 2.046-2.046s-.916-2.046-2.046-2.046-2.047.916-2.047 2.046.917 2.046 2.047 2.046ZM236.582 59.5485c.865 0 1.566-.7013 1.566-1.5663s-.701-1.5662-1.566-1.5662c-.866 0-1.567.7012-1.567 1.5662s.701 1.5663 1.567 1.5663ZM57.7274 218.39c.8652 0 1.5666-.701 1.5666-1.566 0-.865-.7014-1.566-1.5666-1.566-.8651 0-1.5665.701-1.5665 1.566 0 .865.7014 1.566 1.5665 1.566ZM15.6284 18.2753c.53 0 .9597-.4296.9597-.9595s-.4297-.9595-.9597-.9595-.9597.4296-.9597.9595.4297.9595.9597.9595ZM241.888 65.5878c.53 0 .96-.4296.96-.9595 0-.53-.43-.9596-.96-.9596s-.96.4296-.96.9596c0 .5299.43.9595.96.9595ZM253.108 57.6154c.53 0 .96-.4296.96-.9596 0-.5299-.43-.9595-.96-.9595s-.96.4296-.96.9595c0 .53.43.9596.96.9596ZM251.16 84.3124c.53 0 .96-.4296.96-.9595s-.43-.9595-.96-.9595-.959.4296-.959.9595.429.9595.959.9595ZM202.513 235.732c.53 0 .959-.43.959-.96 0-.529-.429-.959-.959-.959s-.96.43-.96.959c0 .53.43.96.96.96ZM62.0461 223.555c.53 0 .9596-.43.9596-.96s-.4296-.959-.9596-.959c-.5301 0-.9597.429-.9597.959s.4296.96.9597.96Z" fill="#FDDA01" style="mix-blend-mode:screen"/>
     <rect x="211.767" y="11.8082" width="40.7613" height="22.2914" rx="11.1457" fill="#27173A"/>
     <circle cx="241.383" cy="22.9539" r="7.9612" fill="#FFC207"/>
     <circle cx="235.332" cy="23.2723" r="7.64275" fill="#27173A"/>
   </g>
   <defs>
     <linearGradient id="a" x1="131.837" y1=".344055" x2="131.837" y2="524.51" gradientUnits="userSpaceOnUse">
       <stop stop-color="#717374"/>
       <stop offset="1" stop-color="#4D4D4F"/>
     </linearGradient>
     <linearGradient id="c" x1="123.304" y1="524.308" x2="123.304" y2="-12.4545" gradientUnits="userSpaceOnUse">
       <stop offset=".15" stop-color="#0E4764"/>
       <stop offset=".24" stop-color="#0F5771"/>
       <stop offset=".53" stop-color="#13899A"/>
       <stop offset=".67" stop-color="#149DAA"/>
       <stop offset=".73" stop-color="#1396A5"/>
       <stop offset=".8" stop-color="#118498"/>
       <stop offset=".89" stop-color="#0D6683"/>
       <stop offset=".99" stop-color="#083D65"/>
       <stop offset="1" stop-color="#073660"/>
     </linearGradient>
     <linearGradient id="d" x1="15.4103" y1="495.325" x2="120.533" y2="386.98" gradientUnits="userSpaceOnUse">
       <stop stop-color="#1887A6"/>
       <stop offset=".42" stop-color="#1989A8"/>
       <stop offset=".6" stop-color="#1D90AF"/>
       <stop offset=".72" stop-color="#239CBB"/>
       <stop offset=".83" stop-color="#2DADCD"/>
       <stop offset=".92" stop-color="#38C4E3"/>
       <stop offset="1" stop-color="#47DFFF"/>
     </linearGradient>
     <linearGradient id="e" x1="-33.0114" y1="452.43" x2="102.369" y2="401.785" gradientUnits="userSpaceOnUse">
       <stop stop-color="#0E4764"/>
       <stop offset=".06" stop-color="#104C6A"/>
       <stop offset=".46" stop-color="#1D688D"/>
       <stop offset=".79" stop-color="#2579A2"/>
       <stop offset="1" stop-color="#287FAA"/>
     </linearGradient>
     <linearGradient id="f" x1="153.944" y1="483.035" x2="153.944" y2="363.322" gradientUnits="userSpaceOnUse">
       <stop stop-color="#0E4764"/>
       <stop offset="1" stop-color="#1B8EB8"/>
     </linearGradient>
     <linearGradient id="g" x1="122.006" y1="490.203" x2="122.006" y2="442.933" gradientUnits="userSpaceOnUse">
       <stop stop-color="#0E4764"/>
       <stop offset="1" stop-color="#0E4764"/>
     </linearGradient>
     <linearGradient id="h" x1="63.2254" y1="243.763" x2="249.566" y2="296.642" gradientUnits="userSpaceOnUse">
       <stop stop-color="#FDF600"/>
       <stop offset=".05" stop-color="#CDC800"/>
       <stop offset=".1" stop-color="#A39E00"/>
       <stop offset=".15" stop-color="#7B7800"/>
       <stop offset=".21" stop-color="#5A5700"/>
       <stop offset=".27" stop-color="#3E3C00"/>
       <stop offset=".35" stop-color="#272600"/>
       <stop offset=".43" stop-color="#151500"/>
       <stop offset=".53" stop-color="#090900"/>
       <stop offset=".67" stop-color="#020200"/>
       <stop offset="1"/>
     </linearGradient>
     <radialGradient id="i" cx="0" cy="0" r="1" gradientUnits="userSpaceOnUse" gradientTransform="matrix(5.34883 0 0 5.34787 18.2534 107.722)">
       <stop stop-color="#FEF700"/>
       <stop offset=".12" stop-color="#C3BE00"/>
       <stop offset=".25" stop-color="#8F8B00"/>
       <stop offset=".37" stop-color="#636100"/>
       <stop offset=".5" stop-color="#3F3E00"/>
       <stop offset=".62" stop-color="#242300"/>
       <stop offset=".75" stop-color="#100F00"/>
       <stop offset=".87" stop-color="#040400"/>
       <stop offset="1"/>
     </radialGradient>
     <radialGradient id="j" cx="0" cy="0" r="1" gradientUnits="userSpaceOnUse" gradientTransform="matrix(40.5441 0 0 40.5371 777.654 1909.79)">
       <stop stop-color="#FEF700"/>
       <stop offset=".12" stop-color="#C3BE00"/>
       <stop offset=".25" stop-color="#8F8B00"/>
       <stop offset=".37" stop-color="#636100"/>
       <stop offset=".5" stop-color="#3F3E00"/>
       <stop offset=".62" stop-color="#242300"/>
       <stop offset=".75" stop-color="#100F00"/>
       <stop offset=".87" stop-color="#040400"/>
       <stop offset="1"/>
     </radialGradient>
     <radialGradient id="k" cx="0" cy="0" r="1" gradientUnits="userSpaceOnUse" gradientTransform="matrix(40.5445 0 0 40.537 1807.17 1581.93)">
       <stop stop-color="#FEF700"/>
       <stop offset=".12" stop-color="#C3BE00"/>
       <stop offset=".25" stop-color="#8F8B00"/>
       <stop offset=".37" stop-color="#636100"/>
       <stop offset=".5" stop-color="#3F3E00"/>
       <stop offset=".62" stop-color="#242300"/>
       <stop offset=".75" stop-color="#100F00"/>
       <stop offset=".87" stop-color="#040400"/>
       <stop offset="1"/>
     </radialGradient>
     <radialGradient id="l" cx="0" cy="0" r="1" gradientUnits="userSpaceOnUse" gradientTransform="matrix(40.544 0 0 40.537 2224.91 670.65)">
       <stop stop-color="#FEF700"/>
       <stop offset=".12" stop-color="#C3BE00"/>
       <stop offset=".25" stop-color="#8F8B00"/>
       <stop offset=".37" stop-color="#636100"/>
       <stop offset=".5" stop-color="#3F3E00"/>
       <stop offset=".62" stop-color="#242300"/>
       <stop offset=".75" stop-color="#100F00"/>
       <stop offset=".87" stop-color="#040400"/>
       <stop offset="1"/>
     </radialGradient>
     <radialGradient id="m" cx="0" cy="0" r="1" gradientUnits="userSpaceOnUse" gradientTransform="matrix(29.9974 0 0 29.9921 939.903 236.763)">
       <stop stop-color="#FEF700"/>
       <stop offset=".12" stop-color="#C3BE00"/>
       <stop offset=".25" stop-color="#8F8B00"/>
       <stop offset=".37" stop-color="#636100"/>
       <stop offset=".5" stop-color="#3F3E00"/>
       <stop offset=".62" stop-color="#242300"/>
       <stop offset=".75" stop-color="#100F00"/>
       <stop offset=".87" stop-color="#040400"/>
       <stop offset="1"/>
     </radialGradient>
   </defs>
 </svg>